<?xml version="1.0" encoding="UTF-8" standalone="no"?>
<!DOCTYPE svg PUBLIC "-//W3C//DTD SVG 1.1//EN" "http://www.w3.org/Graphics/SVG/1.1/DTD/svg11.dtd">
<svg width="48.00" height="48.00" viewBox="0.00 0.00 800.00 800.00" xmlns="http://www.w3.org/2000/svg" xmlns:xlink="http://www.w3.org/1999/xlink">
<g stroke-linecap="round" id="enkel2">
<path d="M579.22,368.77 C579.22,368.77 578.18,367.72 578.18,367.72 C578.18,367.72 578.63,366.49 578.63,366.49 C578.63,366.49 580.08,366.33 580.08,366.33 C580.08,366.33 580.37,361.33 580.37,361.33 C578.93,363.51 578.36,364.87 578.47,366.32 C578.63,368.33 579.88,373.88 581.61,375.06 C581.99,375.32 582.72,375.44 583.80,375.43 C585.29,373.68 586.55,371.24 586.78,369.06 C586.94,367.16 585.50,363.50 584.09,362.32 C583.60,361.93 582.57,361.39 581.00,360.72 C578.55,362.19 577.27,363.32 576.61,364.86 C575.47,367.59 574.87,373.22 575.21,375.85 C575.41,377.25 576.05,379.09 576.72,380.21 C577.38,381.29 578.65,381.78 581.07,382.12 C583.10,380.34 585.05,377.43 585.65,374.58 C586.11,372.10 584.80,367.71 582.92,365.01 C582.77,364.81 579.81,361.33 579.08,361.09 C577.24,360.53 574.69,361.22 573.77,362.50 C572.13,364.93 570.64,370.54 570.37,373.84 C569.86,381.05 572.67,385.79 573.37,386.82 C575.23,387.18 576.89,386.32 578.14,384.11 C578.96,382.60 579.64,376.56 579.20,373.55 C578.09,366.52 574.39,362.68 572.40,360.99 C570.41,361.83 569.34,362.61 568.74,363.90 C567.66,366.28 566.64,372.74 566.59,376.42 C566.58,379.71 567.46,384.78 569.13,387.97 C569.13,387.97 570.35,387.58 570.35,387.58 C571.57,383.62 571.96,378.54 571.78,376.07 C571.57,373.48 570.42,367.82 569.44,364.75 C568.88,362.99 568.04,361.58 566.47,359.55 C564.95,360.66 564.15,361.58 563.69,362.98 C562.89,365.46 562.31,370.95 562.45,373.72 C562.95,382.62 564.85,389.64 565.52,391.41 C562.44,380.72 559.53,369.81 559.29,364.60 C559.17,361.78 559.50,357.50 560.42,355.83 C560.70,355.35 563.42,350.95 563.69,350.57 C561.58,353.18 559.44,356.27 558.62,358.64 C557.59,361.71 556.43,369.72 556.45,373.53 C556.54,380.35 559.21,385.60 560.96,388.01 C560.57,385.93 557.47,377.55 556.74,375.30 C555.38,370.97 554.80,364.98 555.01,361.13 C555.17,358.72 556.59,354.95 557.40,352.83 C556.87,353.14 555.34,357.62 554.83,361.46 C553.76,369.99 554.60,379.35 554.71,380.63 C553.94,375.40 553.43,370.60 553.67,366.99 C554.09,361.54 557.21,349.57 557.58,348.16 C555.52,352.94 552.43,371.91 553.38,374.30 C553.38,374.30 553.59,361.13 553.59,361.13 C553.09,363.80 552.92,369.12 553.38,372.44 C553.87,375.68 556.59,382.10 557.92,383.88 C558.77,385.01 560.19,386.32 561.03,386.90 C559.37,381.10 555.43,378.48 554.85,378.42 C554.98,380.61 557.04,385.14 559.48,386.92 C560.63,387.74 561.98,388.14 563.15,388.19 C562.26,387.18 561.34,386.29 559.59,384.80 C557.83,383.30 556.59,382.74 554.94,382.55 C556.12,387.49 559.85,390.13 560.72,390.48 C558.90,387.22 555.48,379.31 554.98,377.14 C554.22,373.68 554.79,368.65 555.46,364.12 C554.65,365.33 554.51,371.38 554.89,373.93 C555.82,379.66 558.03,383.77 559.52,386.27 C559.16,386.05 556.69,381.58 555.84,379.68 C554.82,377.32 554.05,373.81 553.68,370.09 C553.44,367.49 554.06,363.24 555.08,359.18 C555.89,356.06 558.68,349.27 559.36,347.01 C559.36,347.01 555.32,353.10 555.32,353.10 C555.32,353.10 560.72,342.78 560.72,342.78 C560.72,342.78 563.45,339.97 563.45,339.97 C563.45,339.97 561.78,341.73 561.78,341.73 C561.78,341.73 560.02,341.51 560.02,341.51 C560.02,341.51 565.57,340.94 565.57,340.94 C565.57,340.94 562.07,340.56 562.07,340.56 C563.90,341.41 571.10,341.84 573.53,343.44 C580.71,348.28 584.95,349.54 586.10,349.78 C584.58,349.23 580.07,348.08 574.63,346.84 C568.92,345.51 564.87,343.74 562.50,342.32 C561.56,341.74 561.41,339.63 561.33,339.42 C559.88,339.73 558.72,340.49 557.72,341.91 C556.46,343.73 551.00,361.48 550.90,365.20 C550.83,368.71 551.25,373.21 552.17,376.75 C553.46,381.60 555.54,386.83 557.53,388.84 C559.59,390.87 565.11,394.87 566.70,395.29 C569.37,395.95 573.52,395.87 574.77,396.65 C574.77,396.65 573.69,397.00 573.69,397.00" fill="none" stroke="rgb(255, 255, 255)" stroke-width="20.00" stroke-opacity="1.00" stroke-linejoin="round"/>
<path d="M579.22,390.01 C578.65,390.54 577.87,392.60 578.77,394.38 C579.35,395.45 581.83,396.99 583.42,397.21 C584.16,397.31 587.36,396.96 588.85,396.81 C587.35,397.01 583.14,397.58 582.31,397.66 C579.80,397.89 578.47,397.49 577.89,396.59 C577.89,396.59 591.31,395.01 591.31,395.01 C591.31,395.01 573.89,396.63 573.89,396.63 C580.97,396.04 592.19,395.06 594.72,394.47 C595.68,394.25 596.78,393.41 598.69,391.75 C598.69,391.75 583.37,395.09 583.37,395.09 C585.55,394.40 604.01,390.25 606.75,389.14 C607.18,388.96 607.66,388.72 608.21,388.39 C608.21,388.39 596.28,392.56 596.28,392.56 C596.28,392.56 616.86,382.95 616.86,382.95 C616.86,382.95 604.60,389.36 604.60,389.36 C614.47,384.35 622.15,381.08 630.19,379.13 C630.19,379.13 606.82,387.22 606.82,387.22 C616.40,382.65 625.25,379.88 633.33,378.71 C634.04,378.61 634.74,378.50 635.45,378.40 C635.45,378.40 585.40,389.75 585.40,389.75 C586.92,388.07 599.05,382.83 609.47,378.75 C618.65,375.36 633.92,370.93 633.89,370.80 C633.89,370.80 586.60,378.46 586.60,378.46 C595.63,374.85 601.93,372.85 611.16,371.29 C621.68,369.64 625.95,369.16 629.45,368.83 C629.45,368.83 586.17,370.65 586.17,370.65 C586.46,369.99 587.12,369.57 588.93,369.03 C595.52,367.11 609.38,365.31 616.91,364.47 C625.48,363.60 630.98,363.98 630.82,364.04 C630.82,364.04 588.74,363.05 588.74,363.05 C588.95,361.80 593.15,360.91 599.66,360.09 C608.51,359.06 618.68,357.86 620.02,357.71 C616.09,356.24 589.82,355.06 587.16,353.97 C589.15,353.21 594.87,352.78 600.83,352.80 C604.86,352.88 611.32,353.02 615.39,353.22 C615.39,353.22 588.65,348.30 588.65,348.30 C588.65,348.30 604.11,350.67 604.11,350.67 C604.11,350.67 579.72,347.05 579.72,347.05 C579.72,347.05 602.12,350.12 602.12,350.12 C602.12,350.12 575.20,345.92 575.20,345.92 C575.20,345.92 589.33,350.63 589.33,350.63 C586.13,350.68 580.98,352.21 578.72,353.50 C576.38,354.85 568.27,361.13 567.30,362.01 C565.98,363.23 560.52,369.48 559.79,372.03 C559.43,373.43 559.66,375.58 560.25,376.47 C560.94,377.37 562.91,378.15 564.66,378.23 C569.04,378.36 581.95,375.35 588.18,373.06 C593.28,371.12 596.94,369.55 598.57,368.63 C601.58,366.89 603.32,364.22 604.04,363.17 C604.04,363.17 602.91,360.64 602.91,360.64 C599.48,360.34 594.35,360.67 590.42,361.60 C584.48,363.06 571.72,368.69 568.37,371.28 C567.35,372.07 564.01,375.04 562.77,376.16 C562.77,376.16 563.67,378.97 563.67,378.97 C567.13,379.55 570.71,379.61 573.75,378.93 C596.96,373.19 611.05,369.00 617.67,366.29 C620.00,365.31 621.76,364.09 624.78,361.73 C623.84,360.96 622.78,360.72 620.70,361.05 C613.65,362.17 606.62,364.41 600.18,366.89 C600.18,366.89 633.22,354.55 633.22,354.55 C632.41,353.58 629.08,353.67 625.04,354.03 C616.49,354.81 606.59,355.72 605.26,355.85 C605.07,354.86 641.83,352.19 641.72,351.98 C641.72,351.98 620.85,354.25 620.85,354.25 C631.78,354.27 647.80,350.32 649.66,349.70 C645.77,349.12 640.60,349.53 638.44,349.89 C634.39,350.56 616.68,354.57 610.15,356.09 C610.15,356.09 632.13,353.60 632.13,353.60 C629.77,353.46 608.56,353.24 604.45,353.04 C598.75,352.74 591.74,351.90 588.92,351.54 C588.92,351.54 604.11,351.64 604.11,351.64 C604.11,351.64 586.62,347.64 586.62,347.64 C600.68,350.12 625.96,352.93 630.61,352.98 C633.84,352.98 638.40,352.17 642.92,350.83 C654.32,347.24 655.26,346.86 655.82,346.50 C655.82,346.50 642.22,351.03 642.22,351.03 C647.37,349.78 657.71,344.35 658.89,343.35 C659.29,343.00 661.08,338.83 662.30,337.71" fill="none" stroke="rgb(255, 255, 255)" stroke-width="20.00" stroke-opacity="1.00" stroke-linejoin="round"/>
<path d="M668.71,327.83 C668.71,327.83 661.49,336.92 661.49,336.92 C661.49,336.92 674.35,322.72 674.35,322.72 C672.87,323.82 668.21,329.48 666.38,332.18 C663.66,336.32 663.34,337.25 663.20,338.64 C663.20,338.64 679.07,318.17 679.07,318.17 C679.07,318.17 673.29,328.08 673.29,328.08 C673.29,328.08 681.37,316.32 681.37,316.32 C681.37,316.32 679.36,320.15 679.36,320.15 C679.36,320.15 682.32,313.84 682.32,313.84 C682.32,313.84 683.17,312.36 683.17,312.36 C683.17,312.36 683.85,310.94 683.85,310.94 C679.19,323.89 671.77,353.84 671.67,354.86 C674.64,350.07 678.14,339.74 678.89,336.29 C678.31,336.26 675.41,341.60 673.71,344.71 C668.11,355.32 665.95,360.14 664.29,364.38 C664.29,364.38 676.72,329.67 676.72,329.67 C676.72,329.67 662.21,357.43 662.21,357.43 C665.85,350.99 673.48,333.67 674.62,331.29 C676.49,327.43 679.42,322.50 680.76,319.58 C680.76,319.58 655.94,357.81 655.94,357.81 C655.94,357.81 671.94,329.25 671.94,329.25 C671.94,329.25 652.19,361.43 652.19,361.43 C652.36,361.43 661.64,347.52 664.38,344.48 C664.72,344.10 665.54,343.25 666.84,341.93 C666.84,341.93 654.22,361.90 654.22,361.90 C654.22,361.90 653.72,359.84 653.72,359.84" fill="none" stroke="rgb(255, 255, 255)" stroke-width="20.00" stroke-opacity="1.00" stroke-linejoin="round"/>
<path d="M654.22,360.97 C653.67,360.66 652.16,360.43 651.36,360.97 C650.41,361.61 648.95,363.81 648.36,365.25 C647.88,366.61 647.63,369.48 648.18,370.57 C648.92,371.94 652.71,372.71 654.81,372.07 C656.40,371.52 659.33,368.93 659.68,367.72 C660.07,366.17 658.62,363.05 657.07,361.65 C655.80,360.59 649.86,359.39 647.77,359.93 C645.85,360.48 642.14,364.25 641.27,366.31 C641.06,366.85 640.43,369.92 640.71,370.55 C641.45,372.13 643.33,373.43 644.68,373.31 C647.41,372.98 651.19,371.71 653.65,370.14 C654.91,369.28 657.07,366.83 657.45,365.58 C657.82,364.23 655.63,362.01 653.57,361.09 C651.82,360.38 647.46,361.18 645.67,362.71 C643.76,364.41 641.18,369.18 641.47,370.45 C641.90,372.00 644.22,373.37 646.53,373.47 C648.26,373.50 654.42,371.42 655.76,370.41 C657.24,369.21 658.09,366.98 657.40,365.46 C656.71,364.05 653.73,361.68 652.03,361.23 C650.20,360.78 647.77,361.16 646.67,361.95 C645.37,362.97 644.27,364.07 643.38,365.25 C642.50,366.44 642.40,367.93 642.83,370.53 C645.06,371.85 646.39,372.30 647.68,371.98 C652.52,370.72 658.28,366.30 660.12,364.20 C660.99,363.12 661.67,360.88 661.24,359.65 C660.74,358.36 658.57,356.61 657.14,356.15 C654.28,355.32 648.65,355.64 645.95,356.79 C640.10,359.39 636.32,364.33 635.65,365.29 C635.65,365.29 636.35,366.51 636.35,366.51 C641.00,365.64 645.33,363.84 649.18,361.87 C654.84,358.92 659.36,356.18 659.53,355.36 C659.57,355.12 659.54,354.51 659.46,353.52 C656.77,353.12 654.82,353.12 652.35,353.65 C644.66,355.32 635.38,359.14 624.42,364.24 C621.32,365.70 618.72,367.24 617.87,367.78 C618.68,367.64 635.73,358.35 642.86,354.79 C645.50,353.50 651.73,350.49 653.57,348.40 C651.07,348.30 649.47,348.47 646.99,349.22 C630.68,354.12 616.34,361.77 612.71,364.03 C611.20,364.98 610.54,365.79 609.86,367.30 C610.83,368.06 612.45,368.23 614.22,367.46 C615.32,366.98 617.61,365.37 619.44,363.98" fill="none" stroke="rgb(255, 255, 255)" stroke-width="20.00" stroke-opacity="1.00" stroke-linejoin="round"/>
<path d="M634.10,378.12 C631.54,378.03 630.14,378.33 629.90,379.15 C629.85,379.31 629.84,379.60 629.85,380.02 C632.01,381.00 633.57,381.35 635.72,381.19 C637.88,381.03 639.47,380.60 641.70,379.68 C641.45,378.83 628.29,378.09 620.04,379.03 C610.29,380.35 599.01,382.34 591.81,385.53 C590.54,386.10 582.08,389.59 580.10,390.54 C575.61,392.67 571.98,392.11 571.41,392.03 C570.99,392.40 570.66,393.23 570.92,393.90 C571.28,394.76 572.80,395.93 574.23,396.42 C578.39,397.75 583.02,397.79 586.06,396.63 C586.24,396.55 586.34,396.51 586.35,396.50 C584.61,396.19 583.45,396.34 582.01,397.18 C580.56,398.03 579.29,398.58 577.32,399.24 C577.32,399.24 591.45,393.07 591.45,393.07 C591.21,392.41 585.62,393.10 584.50,393.15 C581.08,393.25 575.89,391.63 574.82,390.03 C574.87,389.97 581.52,393.20 584.27,393.85 C585.75,394.19 589.41,394.50 591.29,394.48 C595.08,394.39 614.24,386.13 617.62,385.60 C620.29,385.19 630.27,382.16 638.94,380.50 C642.23,379.88 648.91,379.95 651.90,380.50 C654.53,381.00 662.25,383.40 663.00,383.86 C662.20,384.74 661.02,385.54 660.00,385.68 C659.67,385.73 659.05,385.73 658.13,385.67" fill="none" stroke="rgb(255, 255, 255)" stroke-width="20.00" stroke-opacity="1.00" stroke-linejoin="round"/>
<path d="M656.75,381.52 C656.75,381.52 655.87,379.47 655.87,379.47 C656.48,380.09 661.10,385.36 663.99,387.74 C665.53,389.00 667.03,390.01 668.66,390.96 C663.25,385.20 660.47,379.75 659.77,378.26 C659.77,378.26 671.35,395.53 671.35,395.53 C670.92,394.12 669.40,390.74 666.88,385.64 C665.27,382.33 663.81,378.51 663.29,374.92 C663.29,374.92 671.89,392.90 671.89,392.90 C671.92,389.85 669.68,382.35 669.12,379.39 C668.61,376.67 668.19,369.86 668.62,367.62 C669.74,368.20 670.58,381.36 670.76,384.45 C668.12,372.72 670.81,360.02 671.15,359.04 C671.15,359.04 670.76,376.76 670.76,376.76 C670.03,366.40 670.62,354.18 671.71,350.81 C671.71,350.81 669.00,378.42 669.00,378.42 C669.00,378.42 669.34,360.36 669.34,360.36 C669.79,362.79 670.30,381.04 671.15,387.65 C671.36,389.16 671.71,391.66 671.85,392.64 C671.85,392.64 667.22,378.40 667.22,378.40 C668.61,388.00 670.63,395.57 674.01,403.79 C674.02,403.79 671.49,398.41 669.78,395.73 C665.96,389.82 662.36,382.83 661.62,380.59 C661.62,380.59 676.02,403.00 676.02,403.00 C676.02,403.00 664.65,383.28 664.65,383.28 C664.81,383.20 674.98,399.61 676.42,402.41 C676.63,402.82 676.94,403.44 677.33,404.27 C673.30,399.98 669.71,392.71 669.23,391.65 C670.80,393.30 674.57,398.43 675.59,400.49 C675.96,401.23 677.14,403.49 677.44,403.85 C677.86,404.35 678.80,405.66 678.86,405.69 C678.86,405.69 678.80,405.73 678.80,405.73 C678.80,405.73 681.01,408.40 681.01,408.40 C681.01,408.40 682.54,412.56 682.54,412.56 C683.49,415.39 685.19,420.48 685.38,420.64 C686.72,421.65 689.88,427.90 690.03,428.48 C689.37,426.86 685.13,418.55 684.82,418.19 C684.51,417.84 684.04,417.51 683.40,417.22 C683.23,417.15 683.06,417.12 682.89,417.13" fill="none" stroke="rgb(255, 255, 255)" stroke-width="20.00" stroke-opacity="1.00" stroke-linejoin="round"/>
<path d="M691.88,429.29 C691.88,429.29 693.62,432.51 693.62,432.51 C693.62,432.51 688.02,424.70 688.02,424.70 C688.02,424.70 692.63,430.26 692.63,430.26 C692.63,430.26 685.34,418.71 685.34,418.71 C685.34,418.71 691.09,428.75 691.09,428.75 C691.09,428.75 681.44,410.76 681.44,410.76 C681.44,410.76 689.49,425.55 689.49,425.55 C689.49,425.55 677.44,401.78 677.44,401.78 C677.44,401.78 685.54,419.54 685.54,419.54 C678.15,402.72 675.18,391.38 674.80,389.02 C674.80,389.02 680.40,408.68 680.40,408.68 C680.38,408.49 675.41,389.90 674.96,387.42 C674.53,385.06 674.10,381.89 673.92,380.06 C673.92,380.06 676.18,392.44 676.18,392.44 C674.05,383.39 673.30,376.33 673.47,368.71 C673.47,368.71 675.84,397.76 675.84,397.76 C675.84,397.76 671.08,382.75 671.08,382.75 C671.08,382.75 680.53,411.19 680.53,411.19 C680.53,411.19 671.69,398.08 671.69,398.08 C671.69,398.08 674.55,404.82 674.55,404.82 C674.55,404.82 668.98,398.16 668.98,398.16 C670.82,400.45 674.09,404.51 676.83,407.57 C678.76,409.83 683.39,417.78 683.62,418.13 C685.31,420.60 686.26,423.08 686.92,424.20 C687.25,424.75 691.00,427.95 691.66,429.88 C688.81,424.54 682.33,412.03 679.72,405.03 C678.37,401.28 673.57,388.39 673.49,388.37 C673.49,388.37 671.44,391.29 671.44,391.29" fill="none" stroke="rgb(255, 255, 255)" stroke-width="15.00" stroke-opacity="1.00" stroke-linejoin="round"/>
<path d="M674.94,362.87 C674.94,362.87 676.49,381.05 676.49,381.05 C675.55,377.22 673.98,370.91 673.79,368.17 C673.71,366.98 673.40,356.72 673.61,353.87 C674.14,346.90 677.18,338.44 677.83,336.81 C677.83,336.81 673.00,365.90 673.00,365.90 C675.38,348.33 680.26,332.27 681.12,329.45 C681.12,329.45 675.28,350.31 675.28,350.31 C675.28,350.31 683.89,323.14 683.89,323.14 C683.89,323.14 680.74,336.37 680.74,336.37 C680.74,336.37 687.62,312.83 687.62,312.83 C687.62,312.83 685.05,318.10 685.05,318.10 C685.05,318.10 685.86,309.47 685.86,309.47 C684.29,309.39 680.98,313.04 678.58,316.70 C676.99,319.25 674.13,324.73 672.86,327.19 C674.07,326.60 677.30,320.75 678.07,319.18 C680.30,314.62 681.34,311.73 682.07,309.39 C682.07,309.39 669.12,332.61 669.12,332.61 C669.12,332.61 676.58,317.40 676.58,317.40 C673.43,318.95 669.06,323.05 666.30,326.95 C663.98,330.29 660.49,335.99 659.01,338.90 C659.01,338.90 667.67,326.16 667.67,326.16 C664.88,328.85 655.43,341.78 651.18,347.60 C647.64,352.29 643.92,356.88 642.94,357.59 C641.32,358.74 639.01,359.56 637.67,359.62" fill="none" stroke="rgb(255, 255, 255)" stroke-width="15.00" stroke-opacity="1.00" stroke-linejoin="round"/>
<path d="M644.57,350.57 C644.57,350.57 646.62,349.46 646.62,349.46 C641.92,349.62 626.51,350.55 619.12,351.07 C608.53,351.74 600.71,351.91 598.06,351.96 C600.82,350.84 604.76,349.97 608.78,349.70 C616.66,349.26 632.27,349.76 632.54,350.35 C632.54,350.35 591.65,347.05 591.65,347.05 C593.04,346.23 594.08,345.98 596.00,346.18 C602.38,346.83 610.02,347.97 610.99,348.12 C610.99,348.12 575.23,344.80 575.23,344.80 C575.23,344.80 583.42,345.90 583.42,345.90 C583.42,345.90 566.33,342.07 566.33,342.07 C565.71,340.18 565.04,339.02 564.01,338.61 C562.57,338.09 560.19,338.27 558.98,339.08 C557.29,340.29 554.25,346.49 554.35,349.29 C555.47,348.79 556.86,346.95 557.26,344.97 C557.56,343.52 557.20,341.61 556.88,341.35 C556.08,341.17 552.59,347.71 552.01,352.15 C551.75,354.38 552.85,361.49 553.85,364.51 C554.90,367.58 557.11,372.42 558.01,373.49 C559.37,375.04 561.08,376.06 562.41,376.01 C562.70,376.00 563.17,375.90 563.82,375.72" fill="none" stroke="rgb(255, 255, 255)" stroke-width="15.00" stroke-opacity="1.00" stroke-linejoin="round"/>
<path d="M554.98,380.02 C554.58,381.58 554.38,382.96 554.58,384.04 C555.25,387.47 558.67,392.07 562.43,395.23 C568.27,400.05 572.59,402.02 572.59,401.86 C572.59,401.86 560.90,396.93 560.90,396.93 C563.92,397.94 567.47,398.64 571.84,398.58 C583.07,398.36 589.57,396.91 591.00,396.42" fill="none" stroke="rgb(255, 255, 255)" stroke-width="15.00" stroke-opacity="1.00" stroke-linejoin="round"/>
<path d="M611.71,392.84 C611.71,392.84 640.57,382.02 640.57,382.02 C637.73,381.05 631.25,381.40 626.84,381.74 C623.00,382.10 615.63,382.81 612.10,383.15 C605.56,383.70 604.21,383.34 602.44,382.41 C606.13,378.65 613.68,374.49 624.28,369.30 C636.48,363.37 637.81,362.53 640.32,360.82 C638.35,359.90 629.73,360.19 626.29,360.42 C624.01,360.59 598.52,362.65 596.37,362.58 C595.16,362.54 593.32,362.27 592.35,362.06 C592.35,362.06 592.53,360.95 592.53,360.95 C595.03,360.04 598.79,359.04 602.78,358.80 C604.55,358.70 616.79,358.47 618.28,358.05 C618.64,357.95 618.80,357.71 618.75,357.35 C615.33,356.28 593.82,353.90 589.60,353.30 C584.95,352.63 582.86,352.07 580.30,351.24 C580.30,351.24 609.16,350.35 609.16,350.35 C609.16,350.35 584.23,345.65 584.23,345.65 C584.23,345.65 606.16,348.40 606.16,348.40 C606.16,348.40 589.31,348.36 589.31,348.36 C598.85,352.08 623.21,354.57 629.33,355.16" fill="none" stroke="rgb(255, 255, 255)" stroke-width="15.00" stroke-opacity="1.00" stroke-linejoin="round"/>
<path d="M604.54,353.24 C604.54,353.24 598.02,352.63 598.02,352.63 C599.54,352.68 605.20,352.70 617.82,351.57 C622.53,351.11 633.37,349.97 634.10,349.86 C641.29,348.70 645.37,345.09 645.65,344.62" fill="none" stroke="rgb(255, 255, 255)" stroke-width="15.00" stroke-opacity="1.00" stroke-linejoin="round"/>
<path d="M631.05,349.84 C631.24,349.89 632.54,349.66 634.25,349.23 C640.59,347.66 653.35,342.69 657.67,339.77 C662.53,336.42 669.83,327.55 671.91,326.05 C669.64,327.37 664.91,332.07 662.76,333.96 C660.03,336.32 655.22,339.32 651.69,341.00 C645.00,344.14 633.55,346.76 624.21,348.22 C619.18,348.92 598.93,347.75 597.59,347.29 C596.30,346.85 592.06,344.99 590.43,344.26 C592.93,345.35 610.56,351.34 618.75,354.10 C626.09,356.54 638.46,360.61 644.44,361.51 C645.52,361.67 646.59,361.83 647.66,361.99" fill="none" stroke="rgb(255, 255, 255)" stroke-width="15.00" stroke-opacity="1.00" stroke-linejoin="round"/>
<path d="M659.86,386.21 C659.36,386.14 658.99,386.08 658.76,386.03 C654.14,384.84 641.98,384.26 636.07,384.75 C627.73,385.53 614.57,387.90 609.23,389.65 C609.23,389.65 619.25,387.89 619.25,387.89 C619.25,387.89 587.57,400.06 587.57,400.06 C587.57,400.06 603.16,395.86 603.16,395.86 C600.35,397.38 577.67,403.44 577.37,403.46 C577.14,403.48 576.91,403.39 576.69,403.18 C578.09,401.10 579.19,399.58 580.81,397.53 C581.42,396.75 582.03,395.97 582.65,395.19" fill="none" stroke="rgb(255, 255, 255)" stroke-width="15.00" stroke-opacity="1.00" stroke-linejoin="round"/>
</g>
</svg>
