<?xml version="1.0" encoding="UTF-8" standalone="no"?>
<!DOCTYPE svg PUBLIC "-//W3C//DTD SVG 1.1//EN" "http://www.w3.org/Graphics/SVG/1.1/DTD/svg11.dtd">
<svg width="48.00" height="48.00" viewBox="0.00 0.00 800.00 800.00" xmlns="http://www.w3.org/2000/svg" xmlns:xlink="http://www.w3.org/1999/xlink">
<g stroke-linecap="round" id="outline2">
<path d="M552.83,330.72 C553.09,330.34 553.25,330.11 553.32,330.01 C553.40,329.92 553.47,329.83 553.56,329.76 C552.17,331.54 551.18,333.06 550.14,335.14 C547.18,341.12 542.03,357.85 541.73,362.89 C541.56,365.93 541.59,370.75 541.94,374.52 C542.42,379.46 543.56,384.71 544.90,388.09 C546.02,390.85 547.69,393.58 549.96,396.29 C551.56,398.14 557.62,402.18 559.37,403.34 C563.45,405.90 565.51,406.59 569.69,407.13 C573.80,407.64 577.78,408.54 579.17,408.63 C581.83,408.80 592.49,406.27 597.06,404.62 C602.09,402.79 615.05,396.14 620.12,394.88 C622.92,394.18 624.66,393.92 625.52,394.03" fill="none" stroke="rgb(0, 0, 0)" stroke-width="10.00" stroke-opacity="1.00" stroke-linejoin="round"/>
<path d="M625.29,393.98 C625.29,393.98 624.75,393.80 624.75,393.80 C630.29,392.59 633.39,392.46 635.73,392.40 C638.69,392.15 644.32,391.26 647.20,391.77 C648.64,392.06 653.47,394.37 656.03,396.04 C658.77,397.86 661.69,400.27 664.48,403.58 C670.23,410.47 677.96,422.86 679.63,424.78 C682.44,428.01 686.24,433.82 686.66,434.36 C687.86,435.88 690.80,438.21 692.55,439.06 C693.90,439.68 696.72,440.16 697.34,439.80 C698.00,439.35 698.50,437.52 698.32,436.42 C696.04,424.31 684.19,397.69 681.09,384.34 C679.76,378.44 679.49,364.18 680.24,358.89 C681.01,353.50 682.41,347.38 685.53,337.79 C689.24,326.60 691.57,318.72 691.98,312.65 C692.12,310.38 692.05,308.15 691.78,306.17 C691.54,304.65 690.49,302.91 689.25,302.04 C688.81,301.76 684.51,300.01 684.25,299.95 C683.13,299.72 679.49,302.70 675.21,306.85 C671.42,310.55 662.41,322.84 660.97,324.18 C660.46,324.64 658.56,326.28 657.78,327.04 C657.53,327.27 657.13,327.67 656.58,328.25" fill="none" stroke="rgb(0, 0, 0)" stroke-width="10.00" stroke-opacity="1.00" stroke-linejoin="round"/>
<path d="M552.72,332.06 C552.72,332.06 552.47,332.11 552.47,332.11 C552.47,332.11 552.20,332.51 552.20,332.51 C552.20,332.51 552.63,332.60 552.63,332.60 C554.05,331.07 555.33,329.79 556.02,329.37 C557.49,328.52 565.43,328.38 567.95,329.17 C572.71,330.79 587.71,335.54 592.30,336.47 C596.06,337.26 598.78,338.84 600.72,341.02" fill="none" stroke="rgb(0, 0, 0)" stroke-width="10.00" stroke-opacity="1.00" stroke-linejoin="round"/>
<path d="M593.07,336.71 C593.57,336.78 597.67,339.33 602.33,340.12 C603.28,340.35 606.50,341.48 608.38,341.56 C614.22,341.79 629.32,341.27 632.10,340.63 C634.39,340.20 639.33,339.13 643.79,337.66 C646.61,336.70 656.96,328.94 661.38,324.46 C662.20,323.67 662.71,319.91 662.91,318.32" fill="none" stroke="rgb(0, 0, 0)" stroke-width="10.00" stroke-opacity="1.00" stroke-linejoin="round"/>
<path d="M456.06,303.18 C455.95,303.18 456.15,302.76 458.87,297.98 C461.53,293.26 467.54,280.35 468.77,278.05 C469.83,276.07 480.58,257.58 481.32,256.84 C482.44,255.78 483.92,254.99 484.96,255.01 C486.04,255.08 489.46,256.13 490.46,256.88 C491.15,257.42 494.09,262.17 496.41,265.03 C498.80,267.90 503.55,273.57 504.75,274.58 C505.26,275.00 510.42,277.71 513.70,278.36 C516.83,278.96 525.60,278.46 528.46,277.94 C530.22,277.62 546.88,274.09 551.79,274.04 C553.72,274.05 557.28,274.64 558.87,275.29 C560.82,276.12 565.73,282.31 566.63,284.13 C566.91,284.72 568.51,292.48 568.29,294.98 C568.20,295.94 564.51,314.72 562.17,324.98" fill="none" stroke="rgb(0, 0, 0)" stroke-width="10.00" stroke-opacity="1.00" stroke-linejoin="round"/>
<path d="M460.40,294.70 C459.43,296.20 456.35,303.50 456.19,303.82 C455.51,305.15 450.99,311.36 450.35,312.10 C448.16,314.60 432.26,326.33 431.85,326.62 C431.72,326.72 406.13,340.68 390.50,350.18 C379.76,356.52 369.20,363.44 367.85,364.42 C364.20,367.12 357.09,370.85 345.78,377.24 C342.24,379.28 308.27,395.53 306.80,396.91 C305.91,397.77 305.44,398.10 304.55,398.54 C304.55,398.54 303.76,397.15 303.76,397.15" fill="none" stroke="rgb(0, 0, 0)" stroke-width="10.00" stroke-opacity="1.00" stroke-linejoin="round"/>
<path d="M306.71,396.38 C306.75,396.31 306.56,396.43 306.50,396.47 C303.99,398.30 297.71,402.45 297.57,402.54 C295.74,403.62 285.05,407.84 275.78,412.49 C266.23,417.28 259.62,420.18 255.24,422.13 C254.05,422.61 248.40,424.37 245.65,425.65 C242.17,427.29 230.86,433.06 222.08,436.26 C213.61,439.22 185.56,447.22 185.19,447.63 C185.02,447.82 184.57,448.41 183.81,449.41" fill="none" stroke="rgb(0, 0, 0)" stroke-width="10.00" stroke-opacity="1.00" stroke-linejoin="round"/>
<path d="M187.08,447.07 C187.14,447.06 185.99,447.67 185.07,448.16 C184.30,448.57 141.11,460.34 135.56,462.08 C127.51,464.33 111.82,471.51 108.80,473.06 C104.99,475.03 101.89,477.47 99.93,479.73 C96.83,483.45 94.13,486.47 93.29,487.68 C92.83,488.35 86.15,499.30 85.52,500.45 C82.54,505.89 81.87,512.02 81.82,513.28 C81.82,513.28 81.78,509.68 81.78,509.68" fill="none" stroke="rgb(0, 0, 0)" stroke-width="10.00" stroke-opacity="1.00" stroke-linejoin="round"/>
<path d="M698.40,444.93 C698.40,444.93 698.61,444.48 698.61,444.48" fill="none" stroke="rgb(0, 0, 0)" stroke-width="10.00" stroke-opacity="1.00" stroke-linejoin="round"/>
<path d="M698.95,443.91 C698.69,443.93 698.54,443.94 698.49,443.92 C698.11,443.95 707.58,463.36 707.57,463.38 C707.51,463.50 707.18,463.59 706.57,463.66" fill="none" stroke="rgb(0, 0, 0)" stroke-width="10.00" stroke-opacity="1.00" stroke-linejoin="round"/>
<path d="M80.93,512.80 C80.93,512.80 82.30,513.95 82.30,513.95 C80.58,513.37 73.83,513.88 71.83,514.69 C70.84,515.12 69.90,516.64 69.69,517.90 C69.55,518.88 69.22,525.25 70.17,527.56 C71.45,530.53 73.79,533.99 76.51,536.91 C79.36,539.99 81.06,541.27 84.59,542.40 C85.26,542.61 85.96,543.30 86.14,543.73 C86.19,543.86 86.25,544.02 86.32,544.20" fill="none" stroke="rgb(0, 0, 0)" stroke-width="10.00" stroke-opacity="1.00" stroke-linejoin="round"/>
<path d="M702.62,543.41 C702.62,543.41 702.96,543.71 702.96,543.71 C702.96,543.71 703.48,543.25 703.48,543.25 C703.48,543.25 702.38,542.96 702.38,542.96" fill="none" stroke="rgb(0, 0, 0)" stroke-width="10.00" stroke-opacity="1.00" stroke-linejoin="round"/>
<path d="M702.38,542.96 L86.21,544.17" fill="none" stroke="rgb(0, 0, 0)" stroke-width="10.00" stroke-opacity="1.00" stroke-linejoin="round"/>
<path d="M86.21,544.17 C86.21,544.17 85.93,543.69 85.93,543.69" fill="none" stroke="rgb(0, 0, 0)" stroke-width="10.00" stroke-opacity="1.00" stroke-linejoin="round"/>
<path d="M85.93,543.69 L85.89,543.63" fill="none" stroke="rgb(0, 0, 0)" stroke-width="10.00" stroke-opacity="1.00" stroke-linejoin="round"/>
<path d="M85.93,543.79 C85.93,543.79 84.59,544.37 84.59,544.37 C84.59,544.37 84.43,544.17 84.43,544.17" fill="none" stroke="rgb(0, 0, 0)" stroke-width="10.00" stroke-opacity="1.00" stroke-linejoin="round"/>
<path d="M78.15,514.33 C78.11,514.34 78.22,514.34 78.25,514.33 C81.02,513.94 87.56,513.03 89.04,513.04 C90.20,513.06 98.57,515.09 100.39,515.33 C102.43,515.59 140.49,519.20 155.83,520.95 C164.72,522.00 180.14,522.86 187.77,523.09 C212.00,523.67 285.45,516.73 305.09,514.13 C319.34,512.16 353.18,505.98 360.34,504.21 C363.45,503.43 390.67,496.44 393.89,495.78" fill="none" stroke="rgb(0, 0, 0)" stroke-width="10.00" stroke-opacity="1.00" stroke-linejoin="round"/>
<path d="M391.73,497.09 C391.17,496.81 390.93,496.63 391.00,496.57 C391.28,496.35 406.88,493.20 414.07,491.75 C419.61,490.55 454.49,482.53 462.25,481.35 C476.04,479.66 509.77,475.10 518.45,474.82 C559.32,473.45 605.76,470.32 641.22,468.81 C655.58,468.39 671.80,467.87 696.43,467.77 C698.64,467.78 709.84,468.64 710.65,468.55 C710.27,468.32 710.02,468.08 709.92,467.83 C709.82,467.58 709.71,466.97 709.60,465.99" fill="none" stroke="rgb(0, 0, 0)" stroke-width="10.00" stroke-opacity="1.00" stroke-linejoin="round"/>
<path d="M710.17,465.24 C710.17,465.24 710.24,464.82 710.24,464.82 C710.11,464.99 713.50,468.72 715.11,471.06 C716.80,473.55 719.63,479.20 723.85,489.56 C726.05,494.89 728.05,504.18 728.37,507.78 C728.65,511.06 728.41,516.52 727.94,520.11 C727.34,524.35 725.23,530.83 723.44,533.17 C720.89,536.44 718.58,538.94 715.70,541.01 C713.52,542.49 709.95,542.94 706.75,542.45 C706.20,542.30 705.51,542.12 705.21,542.24 C705.18,542.68 705.14,543.12 705.10,543.57 C705.07,544.00 705.03,544.43 704.99,544.86" fill="none" stroke="rgb(0, 0, 0)" stroke-width="10.00" stroke-opacity="1.00" stroke-linejoin="round"/>
<path d="M288.59,410.34 C289.74,412.97 292.38,419.00 293.86,422.42 C298.07,431.77 299.85,433.05 300.21,433.09 C300.89,432.38 308.03,430.35 309.19,429.94 C313.28,428.48 319.84,424.12 321.36,422.36 C322.09,421.45 320.62,418.45 317.72,412.51 C313.97,404.74 312.56,400.10 312.69,399.65 C312.69,399.65 311.52,402.77 311.52,402.77" fill="none" stroke="rgb(0, 0, 0)" stroke-width="10.00" stroke-opacity="1.00" stroke-linejoin="round"/>
<path d="M347.50,381.94 C347.45,381.82 347.42,381.73 347.40,381.65 C347.39,381.59 347.44,381.42 347.48,381.48 C348.10,382.50 350.75,388.97 352.08,392.18 C353.56,395.65 357.49,402.35 357.47,402.25 C357.64,401.93 361.91,400.92 364.79,399.67 C365.72,399.26 377.89,392.16 379.94,390.63 C379.43,389.12 376.99,385.67 374.28,380.75 C372.57,377.58 369.93,371.91 369.08,368.69 C369.08,368.69 369.32,370.73 369.32,370.73 C369.32,370.73 370.09,369.38 370.09,369.38" fill="none" stroke="rgb(0, 0, 0)" stroke-width="10.00" stroke-opacity="1.00" stroke-linejoin="round"/>
<path d="M398.40,350.89 C398.12,350.10 398.20,350.01 398.68,350.95 C398.82,351.21 408.61,371.41 409.30,372.23 C409.43,372.38 410.18,372.73 411.61,373.94 C411.61,373.94 427.33,362.09 427.33,362.09 C427.21,360.64 419.19,342.13 418.96,340.75 C418.91,340.41 418.82,339.77 418.69,338.82 C418.69,338.82 419.00,340.70 419.00,340.70" fill="none" stroke="rgb(0, 0, 0)" stroke-width="10.00" stroke-opacity="1.00" stroke-linejoin="round"/>
</g>
</svg>
