<?xml version="1.0" encoding="UTF-8" standalone="no"?>
<!DOCTYPE svg PUBLIC "-//W3C//DTD SVG 1.1//EN" "http://www.w3.org/Graphics/SVG/1.1/DTD/svg11.dtd">
<svg width="48.00" height="48.00" viewBox="0.00 0.00 800.00 800.00" xmlns="http://www.w3.org/2000/svg" xmlns:xlink="http://www.w3.org/1999/xlink">
<g stroke-linecap="round" id="veters2">
<path d="M303.32,415.70 C303.35,416.04 304.26,418.73 304.81,419.62 C305.07,420.03 305.51,420.46 306.15,420.92 C306.15,420.92 303.64,412.40 303.64,412.40 C303.64,412.40 306.19,417.42 306.19,417.42 C306.19,417.42 303.46,412.02 303.46,412.02 C303.46,412.02 303.32,415.38 303.32,415.38 C304.41,415.31 305.58,414.18 305.72,412.67 C305.93,410.18 303.35,409.59 302.63,409.71 C302.63,409.71 305.15,410.80 305.15,410.80 C305.15,410.80 300.50,411.92 300.50,411.92 C300.50,411.92 302.90,411.45 302.90,411.45 C302.90,411.45 298.45,412.65 298.45,412.65 C298.45,412.65 300.84,411.63 300.84,411.63 C298.90,410.39 296.05,411.51 295.79,411.82 C295.79,411.82 301.45,410.60 301.45,410.60 C301.45,410.60 295.61,411.65 295.61,411.65 C295.61,411.65 299.15,409.61 299.15,409.61 C297.94,409.90 297.55,411.25 298.36,413.45 C298.64,414.22 300.26,417.21 301.02,418.63 C301.02,418.63 297.91,413.88 297.91,413.88 C297.91,413.88 302.74,422.05 302.74,422.05 C303.57,422.63 304.53,422.24 306.43,420.33 C307.15,419.61 307.86,418.89 308.58,418.17 C308.58,418.17 306.80,419.58 306.80,419.58 C306.80,419.58 312.62,418.90 312.62,418.90 C312.62,418.90 310.50,419.06 310.50,419.06 C310.50,419.06 313.16,419.02 313.16,419.02 C313.16,419.02 312.53,418.21 312.53,418.21 C312.53,418.21 308.38,407.93 308.38,407.93 C308.38,407.93 310.27,410.24 310.27,410.24 C310.27,410.24 307.39,405.91 307.39,405.91 C307.39,405.91 306.82,404.25 306.82,404.25 C306.82,404.25 301.32,411.41 301.32,411.41 C301.32,411.41 304.95,407.93 304.95,407.93 C304.95,407.93 298.09,410.46 298.09,410.46 C300.97,414.30 302.42,422.18 302.60,423.18 C302.60,423.18 300.39,416.77 300.39,416.77 C300.39,416.77 303.46,423.31 303.46,423.31 C305.86,423.25 307.20,423.00 308.66,422.20 C310.08,421.40 311.61,420.26 311.83,419.68 C312.03,419.08 308.91,411.08 307.61,408.26 C307.61,408.26 309.44,415.66 309.44,415.66 C308.13,414.74 305.52,412.88 304.95,412.63 C303.77,412.10 301.79,412.32 299.58,412.97 C299.58,412.97 302.78,417.64 302.78,417.64 C302.78,417.64 301.16,414.08 301.16,414.08 C301.16,414.08 303.23,417.97 303.23,417.97 C303.23,417.97 305.85,416.98 305.85,416.98" fill="none" stroke="rgb(255, 255, 255)" stroke-width="15.00" stroke-opacity="1.00" stroke-linejoin="round"/>
<path d="M364.32,382.77 C363.90,382.74 363.33,382.48 362.74,382.00 C362.27,381.65 362.03,381.61 362.04,381.86 C362.07,383.32 364.14,389.08 364.11,388.94 C364.11,388.94 360.16,381.52 360.16,381.52 C360.16,381.52 363.37,390.44 363.37,390.44 C363.37,390.44 358.97,381.86 358.97,381.86 C358.97,381.86 361.38,388.68 361.38,388.68 C361.38,388.68 358.07,381.39 358.07,381.39 C358.07,381.39 361.20,386.23 361.20,386.23 C361.20,386.23 358.52,381.70 358.52,381.70 C358.52,381.70 357.86,380.59 357.86,380.59 C357.86,380.59 358.45,378.50 358.45,378.50 C357.18,379.21 356.44,380.51 357.37,381.68 C357.69,382.08 358.61,382.89 360.12,384.09 C360.12,384.09 357.70,381.23 357.70,381.23 C357.70,381.23 361.59,390.42 361.59,390.42 C361.59,390.42 357.75,381.72 357.75,381.72 C357.75,381.72 361.68,390.80 361.68,390.80 C361.68,390.80 366.60,387.16 366.60,387.16 C366.60,387.16 363.39,390.29 363.39,390.29 C363.39,390.29 368.92,387.30 368.92,387.30 C368.92,387.30 364.97,380.69 364.97,380.69 C364.97,380.69 369.17,386.05 369.17,386.05 C369.17,386.05 365.26,378.38 365.26,378.38 C365.26,378.38 366.71,381.54 366.71,381.54 C366.71,381.54 365.53,375.87 365.53,375.87 C365.53,375.87 365.96,379.88 365.96,379.88 C365.96,379.88 364.90,376.64 364.90,376.64 C364.90,376.64 362.53,378.66 362.53,378.66 C362.53,378.66 364.97,376.60 364.97,376.60 C363.62,375.86 361.49,377.74 361.22,378.40 C361.22,378.40 363.77,377.88 363.77,377.88 C361.09,378.23 358.55,380.95 357.98,382.22 C357.98,382.22 360.64,386.88 360.64,386.88 C360.64,386.88 357.55,384.09 357.55,384.09 C357.55,384.09 359.67,388.72 359.67,388.72 C359.67,388.72 358.29,384.41 358.29,384.41 C358.59,385.52 359.23,388.16 359.69,388.64 C360.88,389.84 363.12,389.90 364.59,388.82 C365.31,388.27 366.03,387.71 366.75,387.16 C366.75,387.16 364.68,389.10 364.68,389.10 C365.56,389.93 367.91,388.72 368.96,387.69 C368.96,387.69 364.56,378.89 364.56,378.89 C364.56,378.89 364.61,377.23 364.61,377.23 C362.70,377.22 361.30,377.74 358.79,379.53 C356.94,380.85 355.88,381.45 355.85,381.25 C355.85,381.25 355.43,382.61 355.43,382.61 C355.43,382.61 361.16,393.47 361.16,393.47 C361.16,393.47 368.96,388.35 368.96,388.35 C368.96,388.35 364.88,378.10 364.88,378.10 C364.88,378.10 364.00,380.26 364.00,380.26" fill="none" stroke="rgb(255, 255, 255)" stroke-width="15.00" stroke-opacity="1.00" stroke-linejoin="round"/>
<path d="M406.20,353.40 C406.21,353.09 406.22,352.83 406.22,352.61 C406.22,352.15 406.28,352.02 406.40,352.23 C406.92,353.14 408.09,355.80 408.81,356.86 C408.81,356.86 407.10,349.42 407.10,349.42 C407.10,349.42 409.83,355.50 409.83,355.50 C409.83,355.50 408.56,349.56 408.56,349.56 C408.56,349.56 414.36,347.09 414.36,347.09 C414.36,347.09 408.56,350.16 408.56,350.16 C408.56,350.16 415.22,348.04 415.22,348.04 C413.32,347.17 409.81,349.07 409.02,350.00 C409.02,350.00 414.93,348.65 414.93,348.65 C414.75,348.30 412.94,347.80 411.59,348.14 C409.59,348.68 407.21,350.89 407.37,352.05 C407.50,352.75 412.14,357.77 412.11,357.65 C412.11,357.65 408.86,352.96 408.86,352.96 C408.86,352.96 413.37,359.37 413.37,359.37 C413.37,359.37 411.68,354.51 411.68,354.51 C411.68,354.51 413.89,361.47 413.89,361.47 C413.89,361.47 414.32,360.12 414.32,360.12 C414.32,360.12 414.00,363.37 414.00,363.37 C414.00,363.37 415.88,357.79 415.88,357.79 C415.88,357.79 413.01,362.38 413.01,362.38 C413.01,362.38 416.15,357.32 416.15,357.32 C416.15,357.32 418.54,358.42 418.54,358.42 C418.54,358.42 414.50,352.94 414.50,352.94 C414.50,352.94 416.26,355.08 416.26,355.08 C416.26,355.08 412.47,347.27 412.47,347.27 C412.47,347.27 413.26,348.49 413.26,348.49 C413.26,348.49 412.60,346.60 412.60,346.60 C412.60,346.60 407.98,351.07 407.98,351.07 C407.98,351.07 410.66,348.59 410.66,348.59 C408.45,348.51 406.80,349.17 405.86,350.59 C405.71,350.81 405.66,351.00 405.70,351.16 C405.70,351.16 408.14,350.00 408.14,350.00 C408.14,350.00 408.34,348.97 408.34,348.97 C408.34,348.97 412.92,346.22 412.92,346.22 C412.92,346.22 417.52,357.93 417.52,357.93 C417.52,357.93 411.05,346.38 411.05,346.38 C411.05,346.38 405.97,351.70 405.97,351.70 C405.97,351.70 413.03,362.75 413.03,362.75 C413.03,362.75 414.86,360.06 414.86,360.06 C414.86,360.06 413.55,362.91 413.55,362.91 C413.55,362.91 417.86,359.12 417.86,359.12 C417.86,359.12 413.69,350.95 413.69,350.95 C413.69,350.95 417.21,355.63 417.21,355.63 C417.21,355.63 413.28,346.85 413.28,346.85 C413.28,346.85 407.28,350.08 407.28,350.08 C407.28,350.08 412.90,364.67 412.90,364.67 C412.90,364.67 417.36,359.77 417.36,359.77 C417.36,359.77 412.74,347.05 412.74,347.05 C413.26,349.17 413.84,350.90 414.96,353.53 C416.08,356.16 416.30,357.40 415.94,358.38" fill="none" stroke="rgb(255, 255, 255)" stroke-width="15.00" stroke-opacity="1.00" stroke-linejoin="round"/>
</g>
</svg>
