<?xml version="1.0" encoding="UTF-8" standalone="no"?>
<!DOCTYPE svg PUBLIC "-//W3C//DTD SVG 1.1//EN" "http://www.w3.org/Graphics/SVG/1.1/DTD/svg11.dtd">
<svg width="48.00" height="48.00" viewBox="0.00 0.00 800.00 800.00" xmlns="http://www.w3.org/2000/svg" xmlns:xlink="http://www.w3.org/1999/xlink">
<g stroke-linecap="round" id="zool2">
<path d="M80.32,522.48 C80.31,522.45 80.33,522.53 80.34,522.56 C81.18,524.22 82.24,526.40 82.67,526.83 C84.23,528.36 89.55,528.64 90.70,528.61 C90.70,528.61 80.86,527.17 80.86,527.17 C80.86,527.17 79.87,525.82 79.87,525.82 C80.81,525.04 87.08,523.78 90.68,523.71 C94.87,523.65 108.40,525.79 108.37,525.78 C105.14,524.90 101.03,525.06 97.82,526.18 C96.04,526.81 91.09,529.35 89.28,529.72 C89.28,529.72 96.16,531.32 96.16,531.32 C96.16,531.32 86.12,533.02 86.12,533.02 C86.12,533.02 93.72,534.65 93.72,534.65 C88.85,533.50 83.84,532.19 81.46,530.67 C79.37,529.25 77.92,526.50 77.28,524.36 C80.78,523.69 83.84,523.61 87.11,524.07 C91.46,524.71 96.94,526.09 97.88,527.03 C98.14,527.30 98.73,528.04 99.64,529.23 C99.64,529.23 94.88,534.96 94.88,534.96 C95.05,535.39 102.53,534.34 104.78,534.35 C120.12,534.83 142.57,533.70 143.55,533.50 C144.34,531.76 131.05,530.07 122.07,528.40 C118.50,527.88 114.42,527.25 113.83,526.99 C117.28,527.90 131.69,529.97 138.97,530.83 C148.94,531.84 160.07,532.45 166.78,532.62 C171.95,532.68 182.53,532.18 185.90,532.33 C179.68,530.82 159.07,530.57 156.16,530.39 C161.33,532.59 175.16,534.73 182.24,534.64 C184.04,534.61 223.11,531.95 225.23,531.88 C247.51,532.39 267.77,533.44 279.77,532.81 C293.82,531.92 318.06,530.07 336.96,529.54 C344.33,529.39 357.63,529.05 367.66,528.39 C375.71,527.66 392.62,526.02 394.94,525.35 C393.21,524.83 375.29,522.37 368.83,522.17 C362.49,522.00 325.72,527.29 315.24,528.30 C309.52,528.77 291.13,529.47 285.83,530.48 C270.80,533.38 256.85,531.42 254.00,530.99 C263.10,529.55 274.73,529.25 281.26,528.80 C282.28,528.72 325.44,522.48 336.97,520.17 C341.12,519.32 380.88,509.70 391.30,508.32 C398.60,507.50 413.95,505.89 422.02,505.10 C433.16,504.17 454.07,504.11 457.10,504.15 C453.53,503.10 448.43,503.32 445.05,503.94 C428.06,507.18 409.86,513.17 386.99,519.60 C374.84,522.93 366.78,524.85 361.80,526.29 C351.59,529.17 343.45,530.66 332.01,532.34 C324.29,533.45 317.55,533.81 310.25,534.53 C309.55,535.24 347.82,534.04 363.20,532.69 C372.60,531.93 387.36,531.07 389.14,531.09 C393.38,531.17 408.34,533.38 415.96,533.52 C426.76,533.67 468.73,532.58 473.98,532.65 C488.38,533.17 519.25,532.90 534.28,532.30 C553.28,531.73 574.33,530.54 591.37,531.12 C598.87,531.38 609.62,530.66 618.03,530.09 C628.17,529.36 661.65,529.59 675.38,529.62 C679.75,529.73 683.88,530.23 684.98,530.47 C684.36,530.22 666.79,531.16 660.18,531.30 C649.38,531.51 638.23,530.58 630.33,530.97 C627.97,531.10 618.13,531.94 614.67,532.25 C618.09,532.75 635.15,532.66 643.11,532.60 C651.52,532.50 666.51,532.01 672.12,530.88 C673.92,530.51 681.78,529.49 686.06,530.12 C686.86,530.25 699.16,531.47 699.46,531.48 C702.92,531.57 715.58,528.94 716.59,528.57 C716.59,528.57 712.21,532.63 712.21,532.63 C712.48,531.78 716.18,525.00 717.00,522.22 C717.74,519.58 717.99,516.02 718.06,513.82 C718.06,513.82 717.61,520.01 717.61,520.01 C718.59,517.55 718.70,513.38 717.77,508.76 C717.56,507.69 717.28,506.38 717.29,506.44 C717.29,506.44 718.89,511.27 718.89,511.27 C718.84,507.59 714.41,496.70 712.89,493.03 C712.89,493.03 715.98,499.86 715.98,499.86 C715.98,499.86 707.97,484.71 707.97,484.71 C707.97,484.71 711.33,491.25 711.33,491.25 C711.33,491.25 705.44,481.50 705.44,481.50 C705.44,481.50 706.19,482.55 706.19,482.55 C706.19,482.55 703.53,478.08 703.53,478.08 C703.53,478.08 706.46,478.46 706.46,478.46 C706.46,477.36 702.58,477.16 699.35,477.76 C697.66,478.12 696.65,478.55 696.33,479.03 C695.62,480.17 696.51,483.74 697.71,486.06 C699.50,489.39 702.93,497.18 704.04,500.52 C705.20,504.14 705.80,510.09 705.74,514.46 C705.70,516.61 705.37,519.28 704.99,520.25 C704.74,520.85 703.18,521.82 702.51,521.95 C701.16,522.15 699.29,521.35 698.72,520.17 C698.50,519.69 694.30,499.33 692.85,493.05 C691.80,487.74 687.17,478.27 687.14,478.06 C687.11,477.67 687.51,476.64 687.53,475.94 C684.95,477.60 683.54,478.29 682.24,478.40 C680.66,478.54 676.16,479.16 673.36,479.19 C660.51,479.33 653.88,478.79 647.56,478.29 C645.76,478.08 623.80,477.46 622.59,477.51 C621.07,477.58 610.34,478.97 597.92,479.78 C584.46,480.66 558.53,484.68 543.23,484.99 C529.23,485.60 504.86,486.33 488.67,487.38 C484.29,487.74 467.00,491.24 463.23,491.74 C456.27,492.66 448.89,494.91 438.90,496.13 C431.08,497.14 418.09,499.75 413.48,501.20 C410.84,502.04 394.65,507.83 388.28,509.23 C398.21,505.28 406.60,502.43 412.73,501.82 C415.48,501.57 424.40,501.98 426.31,501.89 C429.25,501.73 478.33,495.57 483.98,495.37 C495.00,495.02 527.00,497.59 531.18,497.44 C518.02,497.86 495.85,497.40 471.45,498.65 C463.24,499.14 446.92,500.20 438.80,500.76 C428.53,501.57 422.93,502.53 410.78,505.14 C407.23,505.92 403.79,506.82 403.04,507.02 C407.63,504.37 421.70,500.58 427.21,499.76 C434.85,498.65 473.23,499.47 489.45,499.85 C499.23,499.92 528.59,499.98 534.54,500.73 C538.01,501.20 539.27,501.98 540.45,502.92 C539.43,504.25 535.31,505.15 529.66,505.92 C498.77,509.73 441.56,518.21 438.26,518.32 C435.00,518.42 421.51,518.16 420.19,518.13 C420.19,518.13 507.51,514.12 507.51,514.12 C495.27,514.50 461.96,516.68 449.32,518.12 C442.04,519.09 412.61,523.42 405.92,523.91 C414.50,521.60 426.86,519.33 435.19,518.04 C446.33,516.58 480.16,513.48 494.28,512.62 C526.30,511.59 576.11,510.33 593.91,510.10 C579.20,511.18 549.34,513.29 534.18,514.31 C517.34,515.10 493.01,516.21 485.51,516.53 C489.62,516.25 530.23,517.14 548.44,517.55 C559.49,517.76 566.43,517.69 575.58,516.96 C584.75,516.13 601.93,512.58 605.56,511.48 C610.14,510.06 619.71,504.99 621.93,503.42 C623.89,502.03 624.95,500.64 626.06,498.12 C624.57,496.00 621.14,493.88 615.98,492.83 C610.56,491.77 596.35,491.10 585.95,491.38 C574.44,491.84 562.86,492.88 556.05,494.01 C540.42,496.64 520.89,502.77 518.29,503.90 C515.13,505.32 513.41,506.60 510.94,509.69 C511.80,512.14 512.90,513.43 515.22,514.09 C522.11,516.02 536.04,516.61 544.15,516.05 C547.71,515.79 564.71,513.91 571.77,512.92 C588.45,510.28 601.95,505.86 605.61,504.22 C607.69,503.28 608.84,502.14 609.95,500.23 C607.80,498.14 606.16,496.96 604.23,496.40 C600.57,495.35 592.76,494.65 588.81,494.69 C581.32,494.78 567.94,497.41 560.72,500.33 C554.76,502.76 549.29,506.66 548.06,507.55 C548.06,507.55 548.08,510.12 548.08,510.12 C550.74,511.73 554.58,513.15 558.65,513.87 C565.17,514.97 574.92,514.79 586.69,514.01 C594.90,513.38 610.12,511.00 615.75,509.63 C624.98,507.32 632.75,503.93 634.28,502.62 C635.16,501.84 636.16,500.01 636.65,498.81 C635.21,496.28 633.92,495.12 631.74,494.76 C628.23,494.20 624.59,494.32 621.25,494.92 C617.94,495.52 611.71,497.37 609.01,498.57 C604.12,500.80 595.26,507.67 592.66,511.21 C591.40,512.97 590.87,517.39 590.70,519.42 C593.99,521.68 599.06,523.40 603.60,523.53 C610.15,523.64 624.67,520.40 631.80,518.05 C635.98,516.65 647.91,511.62 651.69,509.20 C652.64,508.57 654.69,506.73 655.64,505.58 C657.74,502.96 656.98,500.10 656.46,498.91 C652.87,497.24 650.12,496.44 647.57,496.73 C643.92,497.21 639.32,498.20 636.50,499.16 C633.92,500.06 629.42,502.42 627.46,503.93 C625.35,505.57 621.44,509.78 620.61,511.09 C619.56,512.84 618.83,515.08 618.92,516.53 C619.09,518.22 619.89,519.63 621.28,520.65 C623.30,522.04 627.55,522.03 632.18,521.43 C636.89,520.72 651.14,515.42 657.25,511.74 C659.84,510.15 665.09,505.62 665.30,505.39 C666.79,503.75 667.70,501.77 667.69,500.02 C667.62,498.08 666.90,496.01 665.84,494.92 C664.75,493.85 662.30,492.88 660.32,492.65 C657.37,492.37 653.78,493.19 650.94,494.34 C648.25,495.45 643.45,498.12 641.50,499.54 C640.22,500.49 635.64,504.95 634.52,506.90 C633.98,507.90 633.16,511.99 633.28,512.97 C633.49,514.18 635.45,516.35 636.74,516.92 C639.17,517.89 646.51,517.02 650.83,515.79 C655.85,514.33 668.24,508.82 672.38,505.70 C673.70,504.66 675.98,502.45 677.14,500.95 C678.62,498.97 679.31,496.45 678.74,494.84 C678.20,493.52 675.88,490.96 674.38,490.00 C672.72,488.98 669.95,488.03 668.35,487.89 C665.36,487.67 659.10,488.32 656.15,489.14 C651.73,490.40 638.60,497.55 634.46,501.05 C632.77,502.51 630.06,506.92 629.33,508.12 C629.68,509.43 630.41,511.30 631.09,511.94 C632.70,513.37 639.53,513.22 643.72,512.29 C651.00,510.60 663.10,505.70 665.89,503.61 C667.27,502.53 669.94,499.75 670.40,498.65 C670.83,497.60 670.65,495.36 670.33,493.94 C667.01,491.38 664.43,489.94 661.93,489.67 C658.35,489.37 653.84,489.38 651.09,489.79 C648.57,490.18 643.82,491.72 641.54,492.80 C639.17,493.95 636.41,495.80 633.84,497.96 C631.60,499.91 629.86,503.08 628.07,507.85 C630.86,511.36 633.01,513.08 635.84,513.71 C640.24,514.58 652.89,513.56 661.00,511.60 C666.53,510.25 681.20,505.31 683.96,502.94 C684.52,502.46 686.03,500.00 686.78,498.83 C686.78,498.83 685.18,495.54 685.18,495.54 C682.66,494.52 678.70,494.77 674.61,496.41 C671.59,497.67 668.11,499.82 665.82,501.73 C664.02,503.26 660.64,507.64 660.31,508.20 C659.36,509.90 659.18,514.00 659.16,515.88 C660.30,516.57 662.58,518.01 663.25,518.17 C665.17,518.60 671.22,517.86 673.76,517.23 C678.03,516.14 683.23,514.23 685.84,512.53 C689.13,510.29 690.24,508.41 691.05,506.22 C691.05,506.22 689.69,505.47 689.69,505.47 C685.94,507.57 682.76,511.14 681.59,513.36 C680.91,514.66 680.72,516.22 680.78,518.78 C682.05,519.84 683.79,520.37 685.59,519.93 C687.00,519.56 689.55,517.88 690.12,516.85 C691.72,513.74 689.59,510.30 688.09,509.13 C686.24,509.34 684.39,510.46 683.69,512.30 C683.09,513.96 683.49,518.02 684.41,518.92 C685.27,519.70 687.79,519.91 689.13,519.57 C691.72,518.81 695.70,516.43 697.10,514.93 C698.42,513.49 700.25,509.80 700.71,507.49 C700.91,506.29 700.65,503.72 700.07,501.99 C699.44,500.10 697.89,497.79 696.22,495.86 C696.20,497.72 696.85,499.60 698.31,500.98 C699.69,502.24 702.46,503.52 704.00,503.65 C705.44,503.71 707.30,502.81 707.93,501.73 C708.46,500.67 708.51,498.26 708.00,496.87 C707.29,495.08 705.81,492.81 704.47,491.50 C700.51,487.85 699.82,487.31 696.10,486.35 C691.57,485.11 688.67,484.86 685.13,484.93 C671.45,485.35 599.78,489.68 569.76,491.25 C554.42,492.48 524.76,496.35 510.93,498.18 C496.43,500.22 461.66,505.00 452.30,507.55 C437.45,511.91 421.55,516.58 420.50,516.90 C435.97,514.23 467.23,509.04 482.39,507.43 C497.95,505.89 529.14,502.88 544.77,501.41 C560.47,500.11 593.19,498.50 609.50,497.87 C628.15,497.21 667.36,497.45 668.03,497.38 C669.31,497.23 679.30,495.47 681.21,494.34 C682.11,493.79 683.79,491.19 684.50,490.36 C686.41,488.13 696.93,483.96 700.12,482.77 C701.89,482.07 703.44,482.43 704.16,482.61 C704.53,482.71 705.13,482.81 705.96,482.91 C706.90,484.23 710.60,492.26 715.24,504.70 C716.52,508.29 717.42,511.90 717.47,514.67 C717.49,516.51 717.52,521.36 717.52,521.63 C717.45,523.24 712.63,528.90 710.07,530.45 C709.34,530.86 698.58,531.82 697.36,531.96 C692.62,532.51 677.68,531.47 671.30,531.48 C641.44,531.85 574.63,532.18 553.13,533.36 C534.83,534.09 516.95,533.47 494.16,531.94 C478.64,530.94 448.62,529.21 448.17,528.99 C452.81,527.90 493.03,522.52 504.99,521.50 C524.77,520.01 545.78,519.81 560.64,519.76 C597.09,519.95 686.66,520.99 690.18,520.97 C693.58,520.94 696.71,519.77 697.84,519.16 C698.73,516.40 698.47,512.50 697.62,508.96 C697.09,506.90 696.05,504.93 694.93,504.07 C693.65,503.16 691.29,503.20 689.69,504.03 C688.25,504.84 685.37,508.73 684.64,511.03 C684.00,513.17 684.46,517.68 685.52,519.65 C685.78,520.09 687.69,522.46 688.36,522.80 C689.99,523.57 692.73,524.03 694.32,523.82 C697.35,523.34 701.95,521.44 703.46,520.10 C704.94,518.73 706.84,514.45 706.92,512.22 C706.96,509.92 705.07,505.92 703.34,503.94 C702.45,503.00 700.47,502.10 699.37,502.35 C698.33,502.63 696.86,504.34 696.37,505.56 C695.42,508.12 694.87,511.99 695.44,514.34 C695.79,515.52 697.63,518.23 698.83,518.92 C700.15,519.62 704.18,519.09 705.65,518.21 C706.87,517.40 708.48,514.44 708.72,512.69 C708.91,510.77 708.09,507.32 707.05,505.53 C705.96,503.78 703.84,502.33 702.62,502.57 C701.43,502.89 699.86,505.41 699.33,507.69 C698.86,509.97 699.16,513.05 700.03,513.92 C700.96,514.76 703.60,514.82 704.83,514.06 C706.05,513.26 707.12,510.48 707.27,508.20 C707.35,506.36 705.64,501.60 703.95,499.70 C701.87,497.42 695.76,493.46 692.88,492.91 C689.91,492.40 682.62,494.05 679.79,495.62 C677.34,497.02 673.40,501.87 673.04,503.63 C672.59,506.13 673.63,508.78 675.43,509.71 C676.86,510.40 681.84,509.85 683.96,508.70 C685.88,507.62 688.32,504.03 688.75,501.73 C688.92,500.63 688.68,498.15 688.25,497.17 C687.23,495.01 681.87,490.53 679.00,489.41 C676.33,488.41 670.77,488.73 667.52,489.60 C664.83,490.35 659.10,493.09 657.40,494.28 C654.80,496.15 649.87,501.62 649.62,502.70 C649.53,503.11 649.49,504.08 649.48,505.59 C651.15,506.61 652.27,506.88 653.64,506.35 C656.23,505.34 660.78,502.37 662.49,500.22 C663.40,499.04 664.17,497.61 664.90,495.74 C665.40,494.34 665.01,491.71 664.04,489.99 C663.09,488.41 657.22,485.73 654.09,485.71 C651.51,485.73 644.11,487.90 640.59,489.61 C635.12,492.32 626.79,499.27 625.36,501.52 C624.66,502.66 624.60,504.03 624.96,506.26 C627.66,506.84 629.37,506.92 631.10,506.37 C634.12,505.38 639.61,502.29 641.83,500.52 C644.11,498.64 646.45,494.44 646.27,492.38 C646.14,491.30 645.39,489.71 644.64,488.97 C643.13,487.57 636.68,486.12 633.54,486.51 C630.07,486.98 623.65,490.12 621.59,491.35 C619.59,492.56 615.23,495.83 613.95,497.07 C610.90,500.07 607.16,505.99 607.63,507.75 C607.77,508.23 608.30,509.31 609.23,510.99 C612.54,511.22 617.17,510.36 620.58,508.40 C623.17,506.86 627.97,502.12 628.79,500.19 C629.20,499.15 629.43,496.35 629.22,495.19 C628.96,494.00 627.57,491.40 626.65,490.52 C624.60,488.63 618.67,486.71 615.39,486.44 C612.69,486.26 607.42,487.21 604.65,488.27 C601.71,489.44 595.11,493.06 591.93,495.44 C586.04,499.91 581.43,505.73 580.49,508.02 C579.75,509.82 580.05,511.14 581.39,513.07 C584.27,513.06 586.03,512.77 587.70,511.89 C590.82,510.21 595.26,506.37 596.32,504.04 C597.28,501.77 596.91,496.99 595.58,495.39 C594.09,493.70 587.84,491.57 584.01,491.71 C580.08,491.93 573.54,494.70 570.61,496.55 C567.75,498.41 564.06,501.70 560.91,505.16 C558.90,507.37 554.89,512.90 554.62,514.06 C554.49,514.68 554.46,515.93 554.56,517.83 C556.47,518.84 557.73,519.00 559.15,518.15 C561.69,516.59 566.16,512.25 567.37,510.03 C568.57,507.71 568.87,502.26 567.75,499.82 C567.10,498.50 565.60,496.73 564.51,496.03 C563.31,495.33 560.69,494.76 558.90,494.86 C555.65,495.08 549.79,497.48 547.72,498.85 C545.95,500.04 541.06,504.51 539.70,506.10 C536.32,510.10 533.81,516.26 533.26,517.66 C533.26,517.66 535.42,520.68 535.42,520.68 C538.71,521.14 542.83,520.25 546.39,518.11 C549.44,516.23 553.47,512.98 555.67,510.55 C557.29,508.74 558.64,506.65 558.97,505.39 C559.18,504.43 559.04,502.34 558.73,501.43 C557.97,499.48 552.23,495.43 549.33,494.58 C545.81,493.61 539.05,494.66 535.90,495.39 C533.05,496.08 527.05,498.95 524.11,500.63 C520.62,502.66 513.74,508.22 511.55,510.23 C508.87,512.71 507.32,515.38 506.63,516.49 C507.96,517.62 509.03,517.98 510.51,517.50 C513.02,516.68 519.42,512.82 522.37,510.53 C525.50,508.06 530.22,502.41 530.94,499.61 C531.03,499.25 531.16,498.59 531.31,497.64 C529.65,495.08 526.53,492.80 523.01,492.38 C520.11,492.09 514.19,493.78 510.83,495.43 C507.83,496.94 501.22,501.63 499.27,503.28 C497.75,504.59 493.44,509.46 492.16,511.62 C491.11,513.41 491.16,514.67 492.10,516.45 C494.97,516.18 496.92,515.64 499.27,514.29 C502.38,512.50 507.44,509.04 509.16,507.41 C511.45,505.19 514.43,499.40 513.76,497.94 C512.90,496.25 510.72,494.80 508.45,494.39 C504.60,493.76 501.60,493.85 499.03,494.33 C496.31,494.87 493.42,495.89 490.44,497.42 C484.62,500.46 472.26,511.10 470.53,513.13 C466.70,517.76 466.07,519.39 465.81,521.81 C467.65,522.38 468.94,522.31 470.55,521.31 C473.53,519.44 479.29,514.50 481.17,512.03 C483.07,509.47 484.78,503.90 484.27,501.71 C483.95,500.51 482.91,499.15 481.87,498.54 C479.90,497.49 474.78,497.35 471.96,498.18 C465.41,500.20 458.26,504.10 448.30,510.84 C443.41,514.23 442.56,514.91 440.76,516.53 C444.73,516.11 452.51,512.91 454.73,511.80 C457.47,510.42 463.46,506.60 465.06,505.22 C465.87,504.52 465.99,503.50 465.77,501.62 C463.42,500.39 462.01,499.92 459.99,499.85 C453.64,499.65 438.38,501.30 431.25,502.97 C429.62,503.36 400.50,510.92 399.47,511.17 C404.02,509.20 419.87,505.03 427.07,504.64 C429.22,504.53 438.83,504.43 442.23,504.42 C437.26,503.31 424.74,504.39 416.52,506.03 C406.33,508.13 378.38,517.30 366.93,521.93 C367.39,521.96 384.19,517.90 393.13,516.39 C402.01,515.04 413.79,513.90 422.84,513.68 C437.21,513.58 475.18,515.39 479.67,516.29 C489.77,518.35 492.53,519.21 492.46,519.32 C482.31,519.27 471.90,519.48 464.10,520.27 C455.87,521.22 436.46,524.07 433.36,524.77 C428.91,525.80 423.51,527.97 420.64,529.54 C421.71,530.29 427.60,530.74 430.93,531.02 C439.22,531.67 455.45,533.01 461.96,533.68 C468.16,534.29 481.21,533.52 485.26,532.31 C481.60,531.69 467.14,530.59 459.37,530.02 C449.87,529.45 404.96,530.89 403.58,531.07 C403.58,531.07 430.84,530.12 430.84,530.12 C430.84,530.12 372.24,530.45 372.24,530.45 C378.57,530.60 392.92,530.72 401.18,530.48 C420.59,529.61 427.53,527.11 429.62,526.12 C429.62,526.12 429.30,524.89 429.30,524.89 C425.81,523.60 418.32,522.77 414.10,522.31 C407.68,521.69 396.25,521.92 387.57,523.65 C379.06,525.37 376.17,527.77 375.49,528.93 C378.07,530.12 382.72,530.13 385.42,529.78 C388.61,529.34 393.86,528.28 397.01,527.44 C404.28,525.44 408.42,522.12 409.29,521.35 C408.97,519.93 408.42,519.15 407.06,518.57 C404.50,517.50 397.03,515.72 393.69,515.50 C389.98,515.28 382.69,516.21 379.95,516.88 C373.14,518.57 365.69,522.81 363.31,524.83 C362.13,525.85 361.58,526.88 361.16,528.57 C364.48,528.98 368.92,527.75 371.32,526.68 C375.01,524.96 376.98,522.97 377.40,521.71 C376.38,520.66 375.50,520.18 374.08,520.08 C371.41,519.91 365.17,520.49 362.46,521.26 C359.65,522.08 354.38,525.01 352.24,526.79 C351.11,527.75 350.63,528.85 350.33,530.71 C351.34,531.83 352.87,532.28 354.97,531.72 C359.25,530.55 361.75,527.59 362.29,526.16 C360.32,524.43 356.32,523.50 354.15,523.41 C351.59,523.34 345.40,524.28 342.71,525.30 C336.93,527.55 335.12,531.85 335.32,532.83 C337.07,533.49 339.50,532.09 340.69,531.07 C340.69,531.07 340.71,529.70 340.71,529.70 C339.14,527.89 335.29,526.73 331.98,526.48 C329.16,526.33 325.91,527.25 322.46,528.87 C323.30,530.50 324.62,531.37 327.29,531.67 C331.65,532.14 336.00,531.23 337.78,530.75 C337.78,530.75 337.76,529.62 337.76,529.62 C334.90,529.21 328.25,528.29 326.10,528.23 C324.03,528.19 317.28,529.11 314.02,530.10 C310.46,531.23 307.56,533.39 306.96,534.25 C307.80,535.28 313.74,535.79 316.64,535.46 C319.14,535.14 324.52,533.18 325.98,531.76 C325.63,531.00 320.07,529.45 317.09,529.23 C316.06,529.17 306.13,529.10 304.30,529.31 C299.10,529.96 296.37,531.20 295.29,531.88 C298.71,533.16 300.30,533.08 302.92,532.39 C302.29,531.27 296.36,529.77 293.55,529.55 C290.14,529.32 284.57,529.61 281.91,530.22 C278.70,531.02 276.56,530.86 273.11,529.70 C270.67,528.88 252.26,527.70 245.69,527.75 C236.44,527.93 226.84,530.21 221.28,531.34 C214.42,533.21 203.36,533.32 197.03,533.50 C188.74,533.33 176.35,531.33 168.84,531.07 C160.09,530.79 112.90,532.04 112.54,532.00 C111.27,531.89 101.42,530.75 98.28,529.88 C90.99,527.83 83.61,523.93 82.04,524.46 C81.32,524.75 80.61,526.46 80.66,527.78 C80.81,529.86 82.15,531.93 84.07,533.06 C86.03,534.15 108.86,536.49 111.23,536.68 C115.38,536.99 122.05,537.04 125.10,537.08 C127.02,537.11 128.61,537.05 131.48,536.89" fill="none" stroke="rgb(255, 255, 255)" stroke-width="20.00" stroke-opacity="1.00" stroke-linejoin="round"/>
</g>
</svg>
